<svg version="1.1" id="Layer_1" xmlns="http://www.w3.org/2000/svg" xmlns:xlink="http://www.w3.org/1999/xlink" x="0px" y="0px"
	 width="100%" viewBox="0 0 950 950" enable-background="new 0 0 950 950" xml:space="preserve">
<path fill="#9400D3" opacity="1.000000" stroke="none" 
	d="
M1.000000,519.000000 
	C1.000000,490.645782 1.000000,462.291534 1.390821,433.375366 
	C2.187715,431.478638 2.818661,430.167572 2.962548,428.805115 
	C3.761839,421.236603 3.839760,413.538513 5.283241,406.101929 
	C8.875995,387.592560 12.578979,369.077240 17.142303,350.790009 
	C23.916588,323.642548 33.919502,297.544647 45.975929,272.342651 
	C59.182938,244.735596 74.240280,218.116379 93.119598,193.893265 
	C103.506866,180.565872 113.730461,167.020966 125.152695,154.609299 
	C147.349075,130.490234 171.555191,108.410713 198.374817,89.480209 
	C224.484100,71.051094 251.976242,54.911263 281.231537,41.838264 
	C306.922394,30.358067 333.415131,21.227438 360.651031,14.348796 
	C383.288574,8.631500 406.158295,3.960694 429.608002,2.918761 
	C430.764832,2.867361 431.870514,1.665933 433.000000,1.000005 
	C461.354218,1.000000 489.708466,1.000000 518.625854,1.392632 
	C520.025208,2.186254 520.828247,2.833743 521.702576,2.951583 
	C536.934021,5.004370 552.424500,5.882791 567.354553,9.251034 
	C590.453674,14.462240 613.522705,20.315022 635.957642,27.827606 
	C661.330200,36.323845 685.664429,47.701706 708.931824,61.055050 
	C720.878784,67.911484 732.924438,74.785965 744.018860,82.893036 
	C760.595093,95.005844 776.702759,107.820343 792.404724,121.054207 
	C812.402100,137.908295 830.383789,156.925186 846.467773,177.492844 
	C858.703125,193.138992 869.836304,209.699234 880.729919,226.330872 
	C899.954834,255.681885 914.551331,287.455414 925.791931,320.557404 
	C937.847900,356.060577 947.022644,392.375336 949.083374,430.108398 
	C949.137756,431.104187 950.335510,432.037537 951.000000,433.000000 
	C951.000000,461.354218 951.000000,489.708466 950.609192,518.624634 
	C949.812256,520.854858 949.216309,522.502563 949.032532,524.195007 
	C948.193176,531.924377 948.177002,539.816772 946.569092,547.374939 
	C942.093262,568.413086 937.380432,589.419067 932.018188,610.246460 
	C922.798096,646.057800 907.579407,679.506287 889.489807,711.574158 
	C875.621826,736.158264 859.217102,759.058167 841.052490,780.789551 
	C825.965454,798.839111 809.679443,815.579651 792.225159,831.239807 
	C773.806885,847.764893 754.148376,862.692139 733.359680,876.140564 
	C713.357300,889.080322 692.651123,900.770508 670.700256,910.002197 
	C653.885498,917.073853 636.905884,923.951172 619.541626,929.475220 
	C587.929993,939.531677 555.773132,947.479675 522.392456,949.097778 
	C521.566223,949.137817 520.796204,950.339905 520.000000,951.000000 
	C490.979095,951.000000 461.958221,951.000000 432.374756,950.608276 
	C431.143127,949.819214 430.507141,949.151550 429.799957,949.064880 
	C418.479523,947.676392 406.938324,947.310059 395.865692,944.837646 
	C371.306549,939.353882 346.609772,933.993835 322.661926,926.398743 
	C297.024109,918.267761 272.236237,907.475281 248.863220,893.889404 
	C235.083405,885.879700 220.861252,878.401550 208.022125,869.057312 
	C189.152618,855.324219 170.465210,841.088074 153.327621,825.299683 
	C136.384537,809.690491 120.811798,792.440796 105.869461,774.863770 
	C94.850151,761.901611 85.485573,747.474976 75.961533,733.312195 
	C59.298458,708.533386 45.780903,682.013855 35.053627,654.182739 
	C28.616121,637.481140 22.894247,620.458130 17.806692,603.296204 
	C13.766588,589.667725 10.636989,575.707031 8.101473,561.712952 
	C5.718653,548.561584 4.679222,535.168579 2.923600,521.898438 
	C2.786953,520.865540 1.664352,519.963074 1.000000,519.000000 
M499.299011,448.709381 
	C495.013214,454.889648 490.727417,461.069885 486.144257,467.678925 
	C484.606720,465.774414 483.533813,464.533752 482.556763,463.221741 
	C470.749146,447.366333 458.891541,431.547363 447.218079,415.593689 
	C445.128052,412.737366 442.891235,411.632172 439.349884,411.650391 
	C416.853363,411.766296 394.355682,411.652771 371.858368,411.632935 
	C370.249298,411.631531 368.640106,411.774353 365.417999,411.926056 
	C405.543884,467.663666 444.943237,522.392029 484.647522,577.544006 
	C486.084564,575.675598 487.115509,574.399658 488.077728,573.073914 
	C495.401489,562.983459 502.643982,552.833191 510.039459,542.795654 
	C530.244629,515.372131 550.654968,488.098602 570.711792,460.567352 
	C587.637512,437.334167 604.137939,413.791382 620.982666,390.498505 
	C622.265076,388.725189 624.791809,387.851746 626.740173,386.560028 
	C627.201172,386.962311 627.662109,387.364563 628.123108,387.766846 
	C628.123108,471.648285 628.123108,555.529785 628.123108,639.613892 
	C649.810364,639.613892 670.901428,639.613892 692.417725,639.613892 
	C692.417725,535.023071 692.417725,430.633209 692.417725,326.023193 
	C691.581421,325.932190 690.785278,325.767487 689.989685,325.770233 
	C656.494690,325.885712 622.999146,325.955811 589.506287,326.292786 
	C587.469971,326.313293 584.788696,327.983124 583.538574,329.706146 
	C575.535706,340.736389 567.862976,352.005798 560.055237,363.178131 
	C551.671570,375.174622 543.322998,387.196350 534.843384,399.124847 
	C523.198730,415.505768 511.445190,431.809357 499.299011,448.709381 
M344.500275,326.472076 
	C291.429810,326.472076 238.359344,326.472076 185.346924,326.472076 
	C185.346924,347.141296 185.346924,367.212677 185.346924,387.911346 
	C214.926041,387.911346 244.137802,387.911346 273.698120,387.911346 
	C273.698120,472.141754 273.698120,555.740295 273.698120,639.699829 
	C295.425293,639.699829 316.794128,639.699829 338.714661,639.699829 
	C338.714661,555.691467 338.714661,471.971832 338.714661,387.638733 
	C368.280579,387.638733 397.302002,387.638733 426.311646,387.638733 
	C426.311646,366.969757 426.311646,346.918274 426.311646,326.472107 
	C399.105988,326.472107 372.303131,326.472107 344.500275,326.472076 
z"/>
<path fill="#000000" opacity="0" stroke="none" 
	d="
M432.531342,1.000005 
	C431.870514,1.665933 430.764832,2.867361 429.608002,2.918761 
	C406.158295,3.960694 383.288574,8.631500 360.651031,14.348796 
	C333.415131,21.227438 306.922394,30.358067 281.231537,41.838264 
	C251.976242,54.911263 224.484100,71.051094 198.374817,89.480209 
	C171.555191,108.410713 147.349075,130.490234 125.152695,154.609299 
	C113.730461,167.020966 103.506866,180.565872 93.119598,193.893265 
	C74.240280,218.116379 59.182938,244.735596 45.975929,272.342651 
	C33.919502,297.544647 23.916588,323.642548 17.142303,350.790009 
	C12.578979,369.077240 8.875995,387.592560 5.283241,406.101929 
	C3.839760,413.538513 3.761839,421.236603 2.962548,428.805115 
	C2.818661,430.167572 2.187715,431.478638 1.390821,432.906708 
	C1.000000,289.072906 1.000000,145.145844 1.000000,1.000000 
	C144.687485,1.000000 288.375092,1.000000 432.531342,1.000005 
z"/>
<path fill="#000000" opacity="0" stroke="none" 
	d="
M1.000000,519.468628 
	C1.664352,519.963074 2.786953,520.865540 2.923600,521.898438 
	C4.679222,535.168579 5.718653,548.561584 8.101473,561.712952 
	C10.636989,575.707031 13.766588,589.667725 17.806692,603.296204 
	C22.894247,620.458130 28.616121,637.481140 35.053627,654.182739 
	C45.780903,682.013855 59.298458,708.533386 75.961533,733.312195 
	C85.485573,747.474976 94.850151,761.901611 105.869461,774.863770 
	C120.811798,792.440796 136.384537,809.690491 153.327621,825.299683 
	C170.465210,841.088074 189.152618,855.324219 208.022125,869.057312 
	C220.861252,878.401550 235.083405,885.879700 248.863220,893.889404 
	C272.236237,907.475281 297.024109,918.267761 322.661926,926.398743 
	C346.609772,933.993835 371.306549,939.353882 395.865692,944.837646 
	C406.938324,947.310059 418.479523,947.676392 429.799957,949.064880 
	C430.507141,949.151550 431.143127,949.819214 431.906128,950.608276 
	C288.406158,951.000000 144.812332,951.000000 1.000000,951.000000 
	C1.000000,807.312500 1.000000,663.624939 1.000000,519.468628 
z"/>
<path fill="#000000" opacity="0" stroke="none" 
	d="
M951.000000,432.531342 
	C950.335510,432.037537 949.137756,431.104187 949.083374,430.108398 
	C947.022644,392.375336 937.847900,356.060577 925.791931,320.557404 
	C914.551331,287.455414 899.954834,255.681885 880.729919,226.330872 
	C869.836304,209.699234 858.703125,193.138992 846.467773,177.492844 
	C830.383789,156.925186 812.402100,137.908295 792.404724,121.054207 
	C776.702759,107.820343 760.595093,95.005844 744.018860,82.893036 
	C732.924438,74.785965 720.878784,67.911484 708.931824,61.055050 
	C685.664429,47.701706 661.330200,36.323845 635.957642,27.827606 
	C613.522705,20.315022 590.453674,14.462240 567.354553,9.251034 
	C552.424500,5.882791 536.934021,5.004370 521.702576,2.951583 
	C520.828247,2.833743 520.025208,2.186254 519.094482,1.392632 
	C662.927063,1.000000 806.854126,1.000000 951.000000,1.000000 
	C951.000000,144.687485 951.000000,288.375092 951.000000,432.531342 
z"/>
<path fill="#000000" opacity="0" stroke="none" 
	d="
M520.468628,951.000000 
	C520.796204,950.339905 521.566223,949.137817 522.392456,949.097778 
	C555.773132,947.479675 587.929993,939.531677 619.541626,929.475220 
	C636.905884,923.951172 653.885498,917.073853 670.700256,910.002197 
	C692.651123,900.770508 713.357300,889.080322 733.359680,876.140564 
	C754.148376,862.692139 773.806885,847.764893 792.225159,831.239807 
	C809.679443,815.579651 825.965454,798.839111 841.052490,780.789551 
	C859.217102,759.058167 875.621826,736.158264 889.489807,711.574158 
	C907.579407,679.506287 922.798096,646.057800 932.018188,610.246460 
	C937.380432,589.419067 942.093262,568.413086 946.569092,547.374939 
	C948.177002,539.816772 948.193176,531.924377 949.032532,524.195007 
	C949.216309,522.502563 949.812256,520.854858 950.609192,519.093262 
	C951.000000,662.927002 951.000000,806.853943 951.000000,951.000000 
	C807.645874,951.000000 664.291565,951.000000 520.468628,951.000000 
z"/>
<path fill="#FFFFFF" opacity="1.000000" stroke="none" 
	d="
M499.518646,448.427734 
	C511.445190,431.809357 523.198730,415.505768 534.843384,399.124847 
	C543.322998,387.196350 551.671570,375.174622 560.055237,363.178131 
	C567.862976,352.005798 575.535706,340.736389 583.538574,329.706146 
	C584.788696,327.983124 587.469971,326.313293 589.506287,326.292786 
	C622.999146,325.955811 656.494690,325.885712 689.989685,325.770233 
	C690.785278,325.767487 691.581421,325.932190 692.417725,326.023193 
	C692.417725,430.633209 692.417725,535.023071 692.417725,639.613892 
	C670.901428,639.613892 649.810364,639.613892 628.123108,639.613892 
	C628.123108,555.529785 628.123108,471.648285 628.123108,387.766846 
	C627.662109,387.364563 627.201172,386.962311 626.740173,386.560028 
	C624.791809,387.851746 622.265076,388.725189 620.982666,390.498505 
	C604.137939,413.791382 587.637512,437.334167 570.711792,460.567352 
	C550.654968,488.098602 530.244629,515.372131 510.039459,542.795654 
	C502.643982,552.833191 495.401489,562.983459 488.077728,573.073914 
	C487.115509,574.399658 486.084564,575.675598 484.647522,577.544006 
	C444.943237,522.392029 405.543884,467.663666 365.417999,411.926056 
	C368.640106,411.774353 370.249298,411.631531 371.858368,411.632935 
	C394.355682,411.652771 416.853363,411.766296 439.349884,411.650391 
	C442.891235,411.632172 445.128052,412.737366 447.218079,415.593689 
	C458.891541,431.547363 470.749146,447.366333 482.556763,463.221741 
	C483.533813,464.533752 484.606720,465.774414 486.144257,467.678925 
	C490.727417,461.069885 495.013214,454.889648 499.518646,448.427734 
z"/>
<path fill="#FFFFFF" opacity="1.000000" stroke="none" 
	d="
M345.000305,326.472107 
	C372.303131,326.472107 399.105988,326.472107 426.311646,326.472107 
	C426.311646,346.918274 426.311646,366.969757 426.311646,387.638733 
	C397.302002,387.638733 368.280579,387.638733 338.714661,387.638733 
	C338.714661,471.971832 338.714661,555.691467 338.714661,639.699829 
	C316.794128,639.699829 295.425293,639.699829 273.698120,639.699829 
	C273.698120,555.740295 273.698120,472.141754 273.698120,387.911346 
	C244.137802,387.911346 214.926041,387.911346 185.346924,387.911346 
	C185.346924,367.212677 185.346924,347.141296 185.346924,326.472076 
	C238.359344,326.472076 291.429810,326.472076 345.000305,326.472107 
z"/>
</svg>